<svg width="24" height="24" viewBox="0 0 24 24" fill="#dadada" xmlns="http://www.w3.org/2000/svg">
<g clip-path="url(#clip0)">
<path fill-rule="evenodd" clip-rule="evenodd" d="M16.5662 5.32165C15.0945 4.48801 13.4021 4.12686 11.7183 4.28711C10.0345 4.44737 8.44069 5.12129 7.15268 6.21759C5.86467 7.3139 4.94474 8.77959 4.51752 10.4162C4.09029 12.0527 4.1764 13.781 4.76419 15.367C5.35199 16.953 6.41305 18.32 7.80366 19.2828C9.19426 20.2457 10.8472 20.7578 12.5386 20.7499L12.5316 19.2499C11.1477 19.2564 9.79531 18.8374 8.65754 18.0496C7.51977 17.2618 6.65163 16.1434 6.1707 14.8457C5.68978 13.5481 5.61933 12.134 5.96888 10.795C6.31843 9.45603 7.07109 8.25682 8.12492 7.35985C9.17874 6.46288 10.4828 5.91149 11.8605 5.78037C13.2381 5.64925 14.6228 5.94473 15.8269 6.6268C17.031 7.30888 17.9964 8.34457 18.5922 9.59359C19.0543 10.5622 19.2769 11.6228 19.2474 12.6868L17.0303 10.4697L15.9697 11.5303L20 15.5607L24.0303 11.5303L22.9697 10.4697L20.7478 12.6916C20.7777 11.4034 20.5055 10.1204 19.9461 8.94772C19.2178 7.42114 18.0379 6.15529 16.5662 5.32165Z" />
</g>
<defs>
<clipPath id="clip0">
<rect width="24" height="24" fill="white"/>
</clipPath>
</defs>
</svg>
