<svg width="24" height="24" viewBox="0 0 24 24" fill="#dadada" xmlns="http://www.w3.org/2000/svg">
<path fill-rule="evenodd" clip-rule="evenodd" d="M16.7434 6.53029H19.5295C20.9331 6.53029 22 7.60776 22 9.01403V14.5142H2.65169V13.1936H14.5356L12.5549 9.23232H2.65169V9.01403C2.65169 7.60776 3.8612 6.53029 5.26483 6.53029H7.90965V5.33397C7.90965 3.98713 9.07428 2.95059 10.4198 2.95059H14.3745C15.7213 2.95059 16.7434 3.98713 16.7434 5.33397V6.53029ZM2.65381 18.4755C2.71042 19.8359 3.89397 21 5.26483 21H19.5295C20.9003 21 21.9481 19.8359 21.9981 18.4755H2.65381ZM9.58528 6.53029H15.0651V5.33397C15.0651 4.91408 14.7918 4.63018 14.3745 4.63018H10.4198C10.0012 4.63018 9.58528 4.91408 9.58528 5.33397V6.53029Z" />
</svg>
