<svg width="24" height="24" viewBox="0 0 24 24" fill="#dadada" xmlns="http://www.w3.org/2000/svg">
<path fill-rule="evenodd" clip-rule="evenodd" d="M17.5277 5.24512H18.6878C19.4125 5.24512 20.0002 5.89496 20 6.6968V19.1434C20 19.9452 19.4124 20.5952 18.6876 20.5952H18.5114V21.6491C18.5114 21.8428 18.3697 22 18.1942 22H16.6936C16.5186 22 16.3763 21.8431 16.3763 21.6491V20.5952H11.6235V21.6491C11.6235 21.8428 11.4816 22 11.3062 22H9.80544C9.63045 22 9.48833 21.8431 9.48833 21.6491V20.5952H9.31236C8.58777 20.5952 8 19.9454 8 19.1434V17.9942C8.08285 17.998 8.16619 18 8.25 18C8.86733 18 9.45977 17.8935 10.0099 17.6977C10.0935 17.7387 10.1866 17.7616 10.2848 17.7616H17.7152C18.0773 17.7616 18.3709 17.4503 18.3709 17.0662C18.3709 16.6822 18.0773 16.3709 17.7152 16.3709H12.0516C12.4393 15.964 12.7623 15.4949 13.0042 14.9801H17.7152C18.0773 14.9801 18.3709 14.6688 18.3709 14.2848C18.3709 13.9007 18.0773 13.5894 17.7152 13.5894H13.4333C13.4772 13.3161 13.5 13.0357 13.5 12.75C13.5 12.5638 13.4903 12.3799 13.4714 12.1987H17.7152C18.0773 12.1987 18.3709 11.8874 18.3709 11.5033C18.3709 11.1193 18.0773 10.8079 17.7152 10.8079H13.1291C12.927 10.3006 12.6481 9.83227 12.3067 9.41722H17.7152C18.0773 9.41722 18.3709 9.10589 18.3709 8.72185C18.3709 8.33782 18.0773 8.02649 17.7152 8.02649H10.5442C9.85111 7.68921 9.07265 7.5 8.25 7.5C8.16619 7.5 8.08285 7.50196 8 7.50585V6.69672C8 5.89504 8.58762 5.24503 9.31236 5.24503H10.4724V3.66243C10.4724 2.74587 11.1467 2 11.9753 2H16.0248C16.8536 2 17.5277 2.74587 17.5277 3.66243V5.24512ZM11.4741 5.24503H16.5256V3.66243C16.5256 3.35691 16.3008 3.10829 16.0246 3.10829H11.9751C11.6989 3.10829 11.4741 3.35691 11.4741 3.66243V5.24503ZM4.85306 15.2893H5.30475L5.46484 15.1349C4.90452 14.4831 4.56718 13.6369 4.56718 12.7164C4.56718 10.6638 6.23099 9 8.28359 9C10.3362 9 12 10.6638 12 12.7164C12 14.769 10.3362 16.4328 8.28359 16.4328C7.36306 16.4328 6.51687 16.0955 5.86507 15.5352L5.71069 15.6953V16.1469L2.85192 19L2 18.1481L4.85306 15.2893ZM8.28359 15.2893C9.70726 15.2893 10.8565 14.1401 10.8565 12.7164C10.8565 11.2927 9.70726 10.1435 8.28359 10.1435C6.85992 10.1435 5.71069 11.2927 5.71069 12.7164C5.71069 14.1401 6.85992 15.2893 8.28359 15.2893Z" />
</svg>
