<svg width="24" height="24" viewBox="0 0 24 24" fill="#dadada" xmlns="http://www.w3.org/2000/svg">
<path d="M17.856 19.028L15.6368 14.741C16.2028 14.1481 16.5547 13.3415 16.5547 12.4506V9.97201L17.1606 8.42022L21.3673 9.49113L22.9824 6.82134L18.8216 4.16632L19.0869 3.48684L17.8897 3L15.4836 9.16226H7.4231C7.12365 7.66322 5.82182 6.53167 4.26567 6.53167H2.33203V7.84696H4.26562C5.33185 7.84696 6.19922 8.73199 6.19922 9.81991V12.4505C6.19922 13.3414 6.55113 14.1482 7.11707 14.741L5.0355 18.7622C3.80474 18.4429 2.57678 18.0518 1.49852 17.591L1 18.8035C4.21698 20.1792 8.35187 21 12 21C15.6469 21 19.7887 20.1811 23 18.8093L22.5028 17.5955C21.1144 18.1889 19.5124 18.6722 17.856 19.028ZM6.33496 19.0667L8.18837 15.4862C8.56869 15.6477 8.98493 15.7388 9.42188 15.7388H13.332C13.769 15.7388 14.1851 15.6477 14.5654 15.4862L16.5301 19.2817C15.0097 19.5381 13.4335 19.6847 12 19.6847C10.1661 19.6847 8.21802 19.463 6.33496 19.0667Z" />
</svg>
