<svg width="24" height="24" viewBox="0 0 24 24" fill="#dadada" xmlns="http://www.w3.org/2000/svg">
<g clip-path="url(#clip0)">
<path fill-rule="evenodd" clip-rule="evenodd" d="M8.83306 0H3V3.49984H8.83306V0ZM6.51871 6.17368L5.88404 4.66645H7.55181L7.93534 5.57725C8.39747 6.67504 9.46565 7.38436 10.6567 7.38436H10.7988L12.8103 9.5115L14.8289 7.50905C16.7415 7.97499 18.166 9.70184 18.166 11.7557V14.5303H16.6288V11.7557C16.6288 10.758 16.1101 9.87937 15.3283 9.3742L15.3555 23.9972L13.8184 24L13.8052 16.8877H11.7665L11.7649 23.9988L10.2278 23.9984L10.2312 8.90066C8.59482 8.74635 7.16578 7.7108 6.51871 6.17368ZM15.9554 3.4865C15.9554 5.13389 14.6152 6.47407 12.9678 6.47407C11.3204 6.47407 9.98022 5.13389 9.98022 3.4865C9.98022 1.8391 11.3204 0.498929 12.9678 0.498929C14.6152 0.498929 15.9554 1.8391 15.9554 3.4865Z" />
</g>
<defs>
<clipPath id="clip0">
<rect width="24" height="24" fill="white"/>
</clipPath>
</defs>
</svg>
