<svg width="24" height="24" viewBox="0 0 24 24" fill="#dadada" xmlns="http://www.w3.org/2000/svg">
<path fill-rule="evenodd" clip-rule="evenodd" d="M16.6328 6.76562H13.625V5.51562C13.625 3.57699 12.048 2 10.1094 2C8.17074 2 6.59375 3.57699 6.59375 5.51562V6.76562H3.58594C3.26207 6.76562 3 7.0277 3 7.35156V21C3 21.5523 3.44772 22 4 22H16.2188C16.301 22 16.3808 21.9901 16.4573 21.9714C16.6339 21.9903 16.8133 22 16.995 22C19.76 22 22 19.76 22 17C22 14.2408 19.7614 12.0014 16.9975 12C16.9983 12 16.9992 12 17 12C17.0733 12 17.1462 12.0016 17.2188 12.0047V7.35156C17.2188 7.0277 16.9567 6.76562 16.6328 6.76562ZM12.4531 5.51562V6.76562H7.76562V5.51562C7.76562 4.22301 8.81676 3.17188 10.1094 3.17188C11.402 3.17188 12.4531 4.22301 12.4531 5.51562ZM13 17C13 19.21 14.79 21 17 21C19.21 21 21 19.21 21 17C21 14.79 19.21 13 17 13C14.79 13 13 14.79 13 17ZM17.25 14.5H16.5V17.5L19.125 19.075L19.5 18.46L17.25 17.125V14.5Z" />
</svg>
