<svg width="24" height="24" viewBox="0 0 24 24" fill="#dadada" xmlns="http://www.w3.org/2000/svg">
<path fill-rule="evenodd" clip-rule="evenodd" d="M16.713 3.3071C16.9932 3.19101 17.3158 3.25518 17.5303 3.46968L23.5303 9.46968C23.8232 9.76257 23.8232 10.2374 23.5303 10.5303L17.5303 16.5303C17.3158 16.7448 16.9932 16.809 16.713 16.6929C16.4327 16.5768 16.25 16.3034 16.25 16V12.75H7C6.58579 12.75 6.25 12.4142 6.25 12V9.81067L2.06066 14L6.25 18.1893V16C6.25 15.5858 6.58579 15.25 7 15.25H15V16.75H7.75V20C7.75 20.3034 7.56727 20.5768 7.28701 20.6929C7.00676 20.809 6.68417 20.7448 6.46967 20.5303L0.46967 14.5303C0.176777 14.2374 0.176777 13.7626 0.46967 13.4697L6.46967 7.46968C6.68417 7.25518 7.00676 7.19101 7.28701 7.3071C7.56727 7.42318 7.75 7.69666 7.75 8.00001V11.25H17C17.4142 11.25 17.75 11.5858 17.75 12V14.1893L21.9393 10L17.75 5.81067V8.00001C17.75 8.41422 17.4142 8.75001 17 8.75001H9V7.25001H16.25V4.00001C16.25 3.69666 16.4327 3.42318 16.713 3.3071Z" />
</svg>
