<svg width="24" height="24" viewBox="0 0 24 24" fill="#dadada" xmlns="http://www.w3.org/2000/svg">
<path fill-rule="evenodd" clip-rule="evenodd" d="M19.5689 14.9997L20.7838 9.73522C20.8384 9.49584 20.7424 9.24626 20.5396 9.10648C20.3375 8.96669 20.0705 8.96549 19.8659 9.10108L16.73 11.1913L12.8729 6.23213C12.7547 6.07975 12.5717 5.99215 12.3774 6.00055C12.1848 6.00775 12.0072 6.10734 11.8998 6.26813L8.6109 11.2015L4.89783 9.07948C4.69145 8.96129 4.43407 8.97629 4.24209 9.11847C4.05071 9.26066 3.96192 9.50304 4.01531 9.73522L5.2302 14.9997H19.5689ZM18.984 17.5346L19.2917 16.1997H5.50738L5.81515 17.5346C5.87815 17.8069 6.12053 17.9995 6.4001 17.9995H18.399C18.6786 17.9995 18.921 17.8069 18.984 17.5346Z" />
</svg>
