<svg width="24" height="24" viewBox="0 0 24 24" fill="#000" xmlns="http://www.w3.org/2000/svg">
<path fill-rule="evenodd" clip-rule="evenodd" d="M15 8C15 9.65685 13.6569 11 12 11C10.3431 11 9 9.65685 9 8C9 6.34315 10.3431 5 12 5C13.6569 5 15 6.34315 15 8ZM17 8C17 10.7614 14.7614 13 12 13C9.23858 13 7 10.7614 7 8C7 5.23858 9.23858 3 12 3C14.7614 3 17 5.23858 17 8ZM5 21C5 18.7909 6.79086 17 9 17H15C17.2091 17 19 18.7909 19 21V22H21V21C21 17.6863 18.3137 15 15 15H9C5.68629 15 3 17.6863 3 21V22H5V21Z" />
</svg>
