<svg width="24" height="24" viewBox="0 0 24 24" fill="#dadada" xmlns="http://www.w3.org/2000/svg">
<path d="M22.5689 16.0869C22.1551 15.8503 21.6291 15.9917 21.3912 16.4006L19.1082 15.09C19.4168 14.3906 19.6237 13.6371 19.7108 12.8477C19.7281 12.8486 19.7427 12.8571 19.76 12.8571H21.4843C21.9602 12.8571 22.3465 12.474 22.3465 12C22.3465 11.526 21.9602 11.1429 21.4843 11.1429H19.76C19.7427 11.1429 19.7281 11.1514 19.7108 11.1523C19.6237 10.362 19.4159 9.60943 19.1082 8.91L21.3912 7.59943C21.5515 7.87371 21.8404 8.028 22.1387 8.028C22.2844 8.028 22.4327 7.99114 22.5689 7.91314C22.981 7.67657 23.1224 7.152 22.8845 6.74229L22.0223 5.25771C21.7843 4.848 21.2575 4.70571 20.8446 4.944C20.4324 5.18057 20.291 5.70514 20.529 6.11486L18.2399 7.42886C17.7864 6.81771 17.2459 6.27771 16.6337 5.82343L17.8951 3.89743C18.1546 3.50057 18.0416 2.96914 17.6433 2.71114C17.245 2.45314 16.7096 2.56457 16.4509 2.96143L15.1465 4.95343C14.4352 4.638 13.6679 4.42457 12.8626 4.33629V1.71429C13.3385 1.71429 13.7248 1.33114 13.7248 0.857143C13.7248 0.383143 13.3385 0 12.8626 0H11.1383C10.6623 0 10.2761 0.383143 10.2761 0.857143C10.2761 1.33114 10.6623 1.71429 11.1383 1.71429V4.33629C10.333 4.42457 9.56567 4.638 8.85438 4.95257L7.54992 2.96057C7.2904 2.56371 6.75586 2.45229 6.35754 2.71029C5.95835 2.96829 5.84541 3.49971 6.10492 3.89657L7.36627 5.82257C6.75413 6.27686 6.21355 6.81771 5.76005 7.428L3.47186 6.11486C3.70981 5.70429 3.56842 5.18057 3.1563 4.944C2.74246 4.70571 2.21568 4.848 1.97772 5.25771L1.11555 6.74229C0.87759 7.15286 1.01899 7.67657 1.4311 7.91314C1.56733 7.99114 1.71562 8.028 1.86132 8.028C2.15964 8.028 2.44846 7.87371 2.60883 7.59943L4.89185 8.91C4.58405 9.60943 4.37541 10.3629 4.28919 11.1523C4.27281 11.1514 4.25815 11.1429 4.24091 11.1429H2.51657C2.04066 11.1429 1.6544 11.526 1.6544 12C1.6544 12.474 2.04066 12.8571 2.51657 12.8571H4.24091C4.25815 12.8571 4.27281 12.8486 4.29005 12.8477C4.37713 13.638 4.58492 14.3906 4.89271 15.09L2.60969 16.4006C2.37087 15.9909 1.84408 15.8494 1.43196 16.0869C1.01985 16.3234 0.878452 16.848 1.11641 17.2577L1.97858 18.7423C2.13894 19.0166 2.42777 19.1709 2.72608 19.1709C2.87179 19.1709 3.02008 19.134 3.1563 19.056C3.56842 18.8194 3.70981 18.2949 3.47186 17.8851L5.76091 16.5711C6.21442 17.1823 6.755 17.7223 7.36714 18.1766L6.10578 20.1026C5.84627 20.4994 5.95921 21.0309 6.35754 21.2889C6.50238 21.3831 6.66533 21.4286 6.82656 21.4286C7.10848 21.4286 7.38438 21.2914 7.54992 21.0394L8.85438 19.0474C9.56653 19.362 10.333 19.5754 11.1383 19.6637V22.2857C10.6623 22.2857 10.2761 22.6689 10.2761 23.1429C10.2761 23.6169 10.6623 24 11.1383 24H12.8626C13.3385 24 13.7248 23.6169 13.7248 23.1429C13.7248 22.6689 13.3385 22.2857 12.8626 22.2857V19.6637C13.6679 19.5754 14.4352 19.362 15.1465 19.0474L16.4509 21.0394C16.6165 21.2914 16.8924 21.4286 17.1743 21.4286C17.3355 21.4286 17.4985 21.3831 17.6433 21.2897C18.0425 21.0317 18.1555 20.5003 17.8951 20.1034L16.6337 18.1774C17.2459 17.7231 17.7864 17.1823 18.2399 16.572L20.529 17.886C20.291 18.2966 20.4324 18.8203 20.8446 19.0569C20.9808 19.1349 21.1291 19.1717 21.2748 19.1717C21.5731 19.1717 21.8628 19.0174 22.0223 18.7431L22.8845 17.2586C23.1224 16.8471 22.981 16.3234 22.5689 16.0869ZM8.55176 15.4286C7.59906 15.4286 6.82742 14.6614 6.82742 13.7143C6.82742 12.7671 7.59906 12 8.55176 12C9.50445 12 10.2761 12.7671 10.2761 13.7143C10.2761 14.6614 9.50445 15.4286 8.55176 15.4286ZM12.4315 9.42857C11.7176 9.42857 11.1383 8.85257 11.1383 8.14286C11.1383 7.43314 11.7176 6.85714 12.4315 6.85714C13.1454 6.85714 13.7248 7.43314 13.7248 8.14286C13.7248 8.85257 13.1454 9.42857 12.4315 9.42857ZM13.7248 15C13.7248 14.2903 14.3041 13.7143 15.018 13.7143C15.7319 13.7143 16.3113 14.2903 16.3113 15C16.3113 15.7097 15.7319 16.2857 15.018 16.2857C14.3041 16.2857 13.7248 15.7097 13.7248 15Z" />
</svg>
