<svg width="24" height="24" viewBox="0 0 24 24" fill="#dadada" xmlns="http://www.w3.org/2000/svg">
<path fill-rule="evenodd" clip-rule="evenodd" d="M16.7433 6.53032H19.5295C20.9331 6.53032 22 7.6078 22 9.01406V18C22 19.6569 20.6568 21 19 21H5.65167C3.99482 21 2.65167 19.6586 2.65167 18.0018V15.4101C2.87881 15.9176 3.20036 16.3928 3.61633 16.8087C5.44899 18.6414 8.43046 18.6414 10.2631 16.8087C10.5478 16.524 10.7916 16.2059 10.9929 15.8584L15.8492 15.858C16.1407 15.858 16.4205 15.7425 16.6271 15.5359L17.8999 14.2631C18.3296 13.8334 18.3296 13.1372 17.8999 12.7075L16.6271 11.4347C16.4204 11.228 16.1407 11.1126 15.8492 11.1126L10.993 11.1126C10.7916 10.7641 10.5472 10.446 10.2631 10.1619C8.43046 8.32921 5.44899 8.32921 3.61633 10.1619C3.20036 10.5778 2.87881 11.053 2.65167 11.5605V9.23235V9.01406C2.65167 7.6078 3.86119 6.53032 5.26481 6.53032H7.90964V5.33401C7.90964 3.98716 9.07426 2.95062 10.4198 2.95062H14.3745C15.7213 2.95062 16.7433 3.98716 16.7433 5.33401V6.53032ZM9.58527 6.5303H15.0651V5.33398C15.0651 4.91408 14.7917 4.63019 14.3745 4.63019H10.4198C10.0012 4.63019 9.58527 4.91408 9.58527 5.33398V6.5303ZM9.55601 10.869C8.11388 9.42684 5.76557 9.42684 4.32344 10.869C2.88135 12.3111 2.88131 14.6595 4.32344 16.1016C5.76557 17.5438 8.11388 17.5438 9.55601 16.1016C9.83657 15.8211 10.0671 15.4984 10.2456 15.137L10.3832 14.8585L15.8492 14.858C15.876 14.858 15.9012 14.8475 15.92 14.8288L17.1927 13.556C17.232 13.5168 17.232 13.4538 17.1927 13.4146L15.92 12.1418C15.9012 12.123 15.876 12.1126 15.8492 12.1126L10.3819 12.1126L10.2446 11.8329C10.0674 11.4719 9.83644 11.1494 9.55601 10.869ZM6.58617 12.9903C6.31358 12.7177 5.86904 12.7175 5.59626 12.9903C5.3235 13.263 5.3237 13.7076 5.59624 13.9801C5.59626 13.9802 5.59628 13.9802 5.59629 13.9802C5.86882 14.2528 6.31334 14.253 6.58617 13.9802C6.85895 13.7074 6.85877 13.2629 6.58617 12.9903ZM4.88916 12.2832C5.55267 11.6196 6.63038 11.6203 7.29328 12.2832C7.95618 12.9461 7.95679 14.0238 7.29328 14.6873C6.62975 15.3508 5.55201 15.3502 4.88913 14.6872C4.22626 14.0243 4.22565 12.9467 4.88916 12.2832Z" />
</svg>
