<svg width="24" height="24" viewBox="0 0 24 24" fill="#dadada" xmlns="http://www.w3.org/2000/svg">
<g clip-path="url(#clip0)">
<path fill-rule="evenodd" clip-rule="evenodd" d="M5.91221 3.02878H7.07231V1.55161C7.07231 0.696147 7.74644 0 8.57519 0H12.6247C13.4533 0 14.1276 0.696147 14.1276 1.55161V3.0287H15.2877C16.0124 3.0287 16.6 3.63537 16.6 4.38361V16.0005C16.6 16.7491 16.0122 17.3556 15.2877 17.3556H15.1117V18.3391C15.1117 18.5202 14.9696 18.6667 14.7946 18.6667H13.2938C13.1184 18.6667 12.9766 18.52 12.9766 18.3391V17.3556H8.22369V18.3391C8.22369 18.5202 8.08142 18.6667 7.90643 18.6667H6.40583C6.2303 18.6667 6.08857 18.52 6.08857 18.3391V17.3556H5.91237C5.18763 17.3556 4.60001 16.7489 4.60001 16.0005V4.38369C4.59985 3.6353 5.18748 3.02878 5.91221 3.02878ZM8.07445 3.0287H13.1259V1.55161C13.1259 1.26645 12.9011 1.0344 12.6249 1.0344H8.57541C8.29922 1.0344 8.07445 1.26645 8.07445 1.55161V3.0287ZM6.88479 5.62473C6.52269 5.62473 6.22916 5.9153 6.22916 6.27374C6.22916 6.63217 6.52269 6.92274 6.88479 6.92274H14.3153C14.6774 6.92274 14.9709 6.63217 14.9709 6.27374C14.9709 5.9153 14.6774 5.62473 14.3153 5.62473H6.88479ZM6.88479 8.22076C6.52269 8.22076 6.22916 8.51133 6.22916 8.86977C6.22916 9.2282 6.52269 9.51877 6.88479 9.51877H14.3153C14.6774 9.51877 14.9709 9.2282 14.9709 8.86977C14.9709 8.51133 14.6774 8.22076 14.3153 8.22076H6.88479ZM6.22916 11.4658C6.22916 11.1074 6.52269 10.8168 6.88479 10.8168H14.3153C14.6774 10.8168 14.9709 11.1074 14.9709 11.4658C14.9709 11.8242 14.6774 12.1148 14.3153 12.1148H6.88479C6.52269 12.1148 6.22916 11.8242 6.22916 11.4658ZM6.88479 13.4128C6.52269 13.4128 6.22916 13.7034 6.22916 14.0618C6.22916 14.4203 6.52269 14.7108 6.88479 14.7108H14.3153C14.6774 14.7108 14.9709 14.4203 14.9709 14.0618C14.9709 13.7034 14.6774 13.4128 14.3153 13.4128H6.88479ZM2.8 24.0001C3.79412 24.0001 4.6 23.1942 4.6 22.2001C4.6 21.206 3.79412 20.4001 2.8 20.4001C1.80589 20.4001 1 21.206 1 22.2001C1 23.1942 1.80589 24.0001 2.8 24.0001ZM10 22.2001C10 23.1942 9.19411 24.0001 8.2 24.0001C7.20588 24.0001 6.39999 23.1942 6.39999 22.2001C6.39999 21.206 7.20588 20.4001 8.2 20.4001C9.19411 20.4001 10 21.206 10 22.2001ZM13.6 24.0001C14.5941 24.0001 15.4 23.1942 15.4 22.2001C15.4 21.206 14.5941 20.4001 13.6 20.4001C12.6059 20.4001 11.8 21.206 11.8 22.2001C11.8 23.1942 12.6059 24.0001 13.6 24.0001ZM20.8 22.2001C20.8 23.1942 19.9941 24.0001 19 24.0001C18.0059 24.0001 17.2 23.1942 17.2 22.2001C17.2 21.206 18.0059 20.4001 19 20.4001C19.9941 20.4001 20.8 21.206 20.8 22.2001ZM22.6 0H16.6L15.4 2.4H22.6V0Z" />
</g>
<defs>
<clipPath id="clip0">
<rect width="24" height="24" fill="white"/>
</clipPath>
</defs>
</svg>
