<svg width="24" height="24" viewBox="0 0 24 24" fill="#dadada" xmlns="http://www.w3.org/2000/svg">
<path fill-rule="evenodd" clip-rule="evenodd" d="M13 10V2C17.42 2 21 5.58 21 10H13ZM21 11C21 12.84 20.37 14.54 19.32 15.89C20.04 16.53 20.5 17.46 20.5 18.5C20.5 20.43 18.93 22 17 22C15.24 22 13.78 20.7 13.54 19H11.46C11.22 20.7 9.76 22 8 22C6.07 22 4.5 20.43 4.5 18.5C4.5 17.17 5.24 16.01 6.34 15.42C6.11 15.07 4.22 11 4.22 11H2V9H5.49L6.44 11H21ZM8 20C7.17 20 6.5 19.33 6.5 18.5C6.5 17.67 7.17 17 8 17C8.83 17 9.5 17.67 9.5 18.5C9.5 19.33 8.83 20 8 20ZM15.5 18.5C15.5 19.33 16.17 20 17 20C17.83 20 18.5 19.33 18.5 18.5C18.5 17.67 17.83 17 17 17C16.17 17 15.5 17.67 15.5 18.5Z" />
</svg>
