<svg width="24" height="24" viewBox="0 0 24 24" fill="#dadada" xmlns="http://www.w3.org/2000/svg">
<path fill-rule="evenodd" clip-rule="evenodd" d="M4.40465 11.2142L6.03424 14.0368C7.426 16.4474 8.98323 18.5193 10.6269 19.3676C10.6643 19.3869 10.6864 19.4192 10.7095 19.453C10.7173 19.4644 10.7252 19.4759 10.7338 19.4872L11.5341 20.5314C11.6482 20.6801 11.8569 20.725 12.0193 20.6315L17.6999 17.3674L17.7004 17.3672C17.8696 17.2694 17.931 17.0504 17.8461 16.874L17.2985 15.7375C17.2982 15.737 17.2983 15.7362 17.2984 15.7355L18.0741 9.57147C18.1995 9.10322 17.9197 8.61693 17.4514 8.49141C17.2172 8.42866 16.98 8.46663 16.7843 8.57963C16.5886 8.69263 16.4385 8.87825 16.3758 9.11242L15.9652 10.5013C15.9328 10.6098 15.8754 10.6831 15.7913 10.7316C15.6088 10.837 15.3743 10.7827 15.2513 10.5698L11.9372 4.82948C11.6923 4.40531 11.1305 4.26691 10.7064 4.51186C10.6764 4.52917 10.6325 4.55681 10.6039 4.57809C10.2378 4.85042 10.1665 5.35608 10.3947 5.75125L12.6777 9.70561C12.7962 9.91083 12.7253 10.1737 12.52 10.2922C12.3122 10.4122 12.0458 10.3413 11.9258 10.1335L8.9908 5.04992C8.74587 4.62569 8.18782 4.48522 7.76365 4.73012C7.73363 4.74745 7.69348 4.77294 7.66491 4.79427C7.29868 5.06657 7.22005 5.57655 7.44818 5.97167L10.3694 11.0314C10.4896 11.2395 10.4177 11.506 10.2096 11.6261C10.0046 11.7445 9.74182 11.6746 9.62343 11.4695L7.32664 7.49137C7.08175 7.06721 6.52741 6.92452 6.10328 7.16947C6.07331 7.18677 6.03685 7.21013 6.00825 7.2314C5.64211 7.50373 5.55601 8.01794 5.78417 8.41312L8.05923 12.3536C8.18217 12.5666 8.10848 12.8389 7.89565 12.9618L7.88925 12.9655C7.69256 13.079 7.44055 13.0121 7.32699 12.8154L5.91653 10.3725C5.68841 9.97734 5.21087 9.78854 4.79191 9.96949C4.75918 9.98362 4.73894 9.99301 4.70891 10.0103C4.28475 10.2552 4.15979 10.7901 4.40465 11.2142ZM19.4487 5.30916C19.2705 5.26142 19.1647 5.07819 19.2124 4.90002C19.2602 4.72184 19.4434 4.61606 19.6216 4.6638C21.9074 5.2763 23.2689 7.63433 22.6564 9.9202C22.6086 10.0984 22.4254 10.2042 22.2472 10.1564C22.069 10.1087 21.9633 9.92545 22.011 9.74728C22.5282 7.81721 21.3787 5.82632 19.4487 5.30916ZM19.0455 6.81375C20.146 7.10861 20.8013 8.24371 20.5064 9.34416C20.4587 9.52234 20.5645 9.70556 20.7427 9.75331C20.9208 9.80105 21.1041 9.69526 21.1518 9.51709C21.542 8.06083 20.6747 6.55859 19.2184 6.16838C19.0403 6.12064 18.857 6.22643 18.8093 6.4046C18.7615 6.58278 18.8673 6.766 19.0455 6.81375ZM2.57795 15.0495C2.62569 14.8713 2.5199 14.6881 2.34173 14.6404C2.16355 14.5926 1.98033 14.6984 1.93258 14.8766C1.32009 17.1624 2.6815 19.5205 4.96737 20.133C5.14554 20.1807 5.32877 20.0749 5.37651 19.8968C5.42426 19.7186 5.31847 19.5354 5.14029 19.4876C3.21023 18.9705 2.06079 16.9796 2.57795 15.0495ZM5.54344 17.983C4.44298 17.6882 3.78763 16.5531 4.0825 15.4526C4.13024 15.2744 4.02445 15.0912 3.84628 15.0435C3.66811 14.9957 3.48488 15.1015 3.43714 15.2797C3.04693 16.7359 3.91425 18.2382 5.37051 18.6284C5.54868 18.6761 5.73191 18.5703 5.77965 18.3922C5.8274 18.214 5.72161 18.0308 5.54344 17.983Z" />
</svg>
