<svg width="24" height="24" viewBox="0 0 24 24" fill="#dadada" xmlns="http://www.w3.org/2000/svg">
<path fill-rule="evenodd" clip-rule="evenodd" d="M12.0001 1C9.68665 1 5.32336 3.86776 0.327124 8.67011C-0.0709934 9.0536 -0.109581 9.63901 0.232536 10.0626L2.84995 13.3082C9.32289 12.2023 14.7812 12.2198 21.1502 13.3082L23.7676 10.0626C24.1102 9.63764 24.0702 9.05223 23.673 8.67011C18.6772 3.86776 14.3135 1 12.0001 1ZM11.3511 10.5836C10.2976 10.0716 9.01983 9.45072 9.01983 7.70866V5.56842C9.01983 5.17878 9.33606 4.86301 9.72571 4.86301H14.2744C14.6641 4.86301 14.9803 5.17878 14.9803 5.56842V7.70866C14.9803 9.45962 13.6538 10.0996 12.6437 10.587C12.5309 10.6414 12.4222 10.6939 12.3196 10.7458C12.1196 10.8479 11.8805 10.8479 11.6805 10.7458C11.5746 10.6922 11.4641 10.6385 11.3512 10.5836L11.3511 10.5836ZM12.0001 22.3055C15.0505 22.3055 18.9789 21.6227 20.4577 18.9527C13.4833 17.9618 10.5139 17.9622 3.54256 18.9527C5.02086 21.6219 8.94769 22.3055 12.0001 22.3055ZM13.5685 7.7088C13.5685 8.5407 13.0456 8.83021 12.0006 9.32945C11.9476 9.30298 11.8955 9.27715 11.8444 9.2518C11.008 8.83692 10.4317 8.55103 10.4317 7.7088V6.27449H13.5685V7.7088ZM20.732 14.7815V14.6704C14.6289 13.6626 9.6851 13.6107 3.26821 14.6704V14.7815V17.5184V17.5645C10.4689 16.5305 13.7115 16.5564 20.732 17.5645V17.5184V14.7815Z" />
</svg>
