<svg width="24" height="24" viewBox="0 0 24 24" fill="#dadada" xmlns="http://www.w3.org/2000/svg">
<path fill-rule="evenodd" clip-rule="evenodd" d="M1.00002 1.67961e-10C0.447733 -1.00131e-05 1.00141e-05 0.447697 1.67961e-10 0.999982C-1.00131e-05 1.55227 0.447697 1.99999 0.999982 2L3.00139 2.00004C4.65815 2.00007 6.00123 3.34308 6.00134 4.99984L6.00222 18.4999H22.78C23.3323 18.4999 23.78 18.0522 23.78 17.4999C23.78 16.9476 23.3323 16.4999 22.78 16.4999H8.00209L8.00134 4.99971C8.00116 2.23845 5.76269 8.6308e-05 3.00143 3.62401e-05L1.00002 1.67961e-10ZM7.7793 24.0002C8.88387 24.0002 9.7793 23.1048 9.7793 22.0002C9.7793 20.8957 8.88387 20.0002 7.7793 20.0002C6.67473 20.0002 5.7793 20.8957 5.7793 22.0002C5.7793 23.1048 6.67473 24.0002 7.7793 24.0002ZM22.7793 22.0002C22.7793 23.1048 21.8839 24.0002 20.7793 24.0002C19.6747 24.0002 18.7793 23.1048 18.7793 22.0002C18.7793 20.8957 19.6747 20.0002 20.7793 20.0002C21.8839 20.0002 22.7793 20.8957 22.7793 22.0002ZM13.7793 3.00024H8.7793V16.0002H13.7793V3.00024ZM20.7793 10.0002H22.7793V16.0002H14.7793V10.0002H16.7793V9.00024C16.7793 8.44796 17.227 8.00024 17.7793 8.00024H19.7793C20.3316 8.00024 20.7793 8.44796 20.7793 9.00024V10.0002ZM19.7793 10.0002V9.00024H17.7793V10.0002H19.7793Z" />
</svg>
