<svg width="24" height="24" viewBox="0 0 24 24" fill="#dadada" xmlns="http://www.w3.org/2000/svg">
<path d="M15.5547 11.4531H2.58594C2.26207 11.4531 2 11.7152 2 12.0391V20.2422C2 21.2115 2.78852 22 3.75781 22H14.3828C15.3521 22 16.1406 21.2115 16.1406 20.2422V12.0391C16.1406 11.7152 15.8786 11.4531 15.5547 11.4531ZM12.5469 14.9688C12.5469 16.9074 10.9699 18.4844 9.03125 18.4844C7.09262 18.4844 5.51562 16.9074 5.51562 14.9688V14.3828C5.51562 14.0589 5.7777 13.7969 6.10156 13.7969C6.42543 13.7969 6.6875 14.0589 6.6875 14.3828V14.9688C6.6875 16.2614 7.73863 17.3125 9.03125 17.3125C10.3239 17.3125 11.375 16.2614 11.375 14.9688V14.3828C11.375 14.0589 11.6371 13.7969 11.9609 13.7969C12.2848 13.7969 12.5469 14.0589 12.5469 14.3828V14.9688Z" />
<path d="M21.4141 6.76562H18.4062V5.51562C18.4062 3.57699 16.8293 2 14.8906 2C12.952 2 11.375 3.57699 11.375 5.51562V6.76562H8.36719C8.04332 6.76562 7.78125 7.0277 7.78125 7.35156V10.2812H15.5547C16.524 10.2812 17.3125 11.0698 17.3125 12.0391V20.2422C17.3125 20.9042 17.0834 21.5088 16.7116 22H20.2422C21.2115 22 22 21.2115 22 20.2422V7.35156C22 7.0277 21.7379 6.76562 21.4141 6.76562ZM17.2344 6.76562H12.5469V5.51562C12.5469 4.22301 13.598 3.17188 14.8906 3.17188C16.1832 3.17188 17.2344 4.22301 17.2344 5.51562V6.76562Z" />
</svg>
