<svg width="24" height="24" viewBox="0 0 24 24" fill="#dadada" xmlns="http://www.w3.org/2000/svg">
<path fill-rule="evenodd" clip-rule="evenodd" d="M12 8.38465L15.4346 5V7.53849H17.9133C21.2329 7.53849 23.9239 10.1904 23.9239 13.4616C23.9239 16.7329 21.2329 19.3848 17.9133 19.3848H15.5V17.6924H17.9133C20.2844 17.6924 22.2066 15.7982 22.2066 13.4616C22.2066 11.125 20.2844 9.23081 17.9133 9.23081H15.4346V11.7693L12 8.38465ZM0.709408 7.68136C0.236469 8.13026 0 8.70741 0 9.41283V9.98196C0 10.7301 0.242033 11.326 0.7261 11.7695C1.21573 12.2077 1.83612 12.4269 2.58725 12.4269C3.35508 12.4269 3.97269 12.2024 4.44006 11.7535C4.913 11.3046 5.14947 10.7301 5.14947 10.0301V9.45291C5.14947 8.72077 4.913 8.13026 4.44006 7.68136C3.97269 7.22712 3.34952 7 2.57056 7C1.80273 7 1.18235 7.22712 0.709408 7.68136ZM1.73596 10.9279C1.52453 10.6981 1.41882 10.3988 1.41882 10.0301V9.43687C1.41882 9.05745 1.52175 8.75284 1.72762 8.52305C1.93905 8.28791 2.22003 8.17034 2.57056 8.17034C2.92109 8.17034 3.20207 8.28524 3.41351 8.51503C3.6305 8.74482 3.739 9.04409 3.739 9.41283V9.998C3.739 10.3881 3.63328 10.6981 3.42185 10.9279C3.21042 11.1523 2.93222 11.2645 2.58725 11.2645C2.23672 11.2645 1.95296 11.1523 1.73596 10.9279ZM6.56828 14.2385C6.08422 14.682 5.84219 15.2619 5.84219 15.978V16.5631C5.84219 17.2953 6.07865 17.8858 6.55159 18.3347C7.0301 18.7782 7.65883 19 8.43778 19C9.21674 19 9.83713 18.7756 10.2989 18.3267C10.7663 17.8724 11 17.2979 11 16.6032V16.0341C11 15.2806 10.758 14.682 10.2739 14.2385C9.7954 13.7949 9.17779 13.5731 8.42109 13.5731C7.66995 13.5731 7.05235 13.7949 6.56828 14.2385ZM7.58649 17.501C7.3695 17.2659 7.261 16.9666 7.261 16.6032V16.01C7.261 15.6146 7.36672 15.3046 7.57815 15.0802C7.79514 14.8557 8.07613 14.7435 8.42109 14.7435C8.7605 14.7435 9.03869 14.8557 9.25569 15.0802C9.47269 15.3046 9.58118 15.6039 9.58118 15.978V16.5792C9.58118 16.98 9.47825 17.2926 9.27238 17.517C9.07208 17.7361 8.79388 17.8457 8.43778 17.8457C8.09282 17.8457 7.80905 17.7308 7.58649 17.501ZM1.96131 17.3888L3.00455 17.9659L8.93854 8.84369L7.8953 8.26653L1.96131 17.3888Z" />
</svg>
