<svg width="20" height="20" viewBox="0 0 20 20" fill="#dadada" xmlns="http://www.w3.org/2000/svg">
<path fill-rule="evenodd" clip-rule="evenodd" d="M3.47728 0H16.6894C17.3462 0.000764906 17.9759 0.262009 18.4403 0.726423C18.9047 1.19084 19.166 1.8205 19.1667 2.47728V17.341C19.166 17.9977 18.9047 18.6274 18.4403 19.0918C17.9759 19.5562 17.3462 19.8175 16.6894 19.8182H3.47728C3.25828 19.8182 3.04824 19.7312 2.89338 19.5764C2.73852 19.4215 2.65152 19.2115 2.65152 18.9925V14.8637H5.1288V13.2122H2.65152V10.7349H5.1288V9.08336H2.65152V6.60608H5.1288V4.95456H2.65152V0.82576C2.65152 0.606755 2.73852 0.396719 2.89338 0.241859C3.04824 0.0869995 3.25828 0 3.47728 0ZM8.91613 5.43885C8.60653 5.74846 8.43236 6.16823 8.43184 6.60608V7.43184H10.0834V6.60608H11.7349C12.1727 6.60556 12.5925 6.43139 12.9021 6.12179C13.2117 5.81218 13.3859 5.39241 13.3864 4.95456V4.1288H11.7349V4.95456H10.0834C9.64551 4.95508 9.22574 5.12924 8.91613 5.43885ZM17.0309 11.9021C17.3405 11.5925 17.5147 11.1727 17.5152 10.7349V9.90912C17.5147 9.47127 17.3405 9.0515 17.0309 8.74189C16.7213 8.43228 16.3015 8.25812 15.8637 8.2576H7.60608C7.38708 8.2576 7.17704 8.3446 7.02218 8.49946C6.86732 8.65432 6.78032 8.86435 6.78032 9.08336V10.7349C6.78022 11.6833 7.10671 12.6029 7.70491 13.339C8.3031 14.075 9.13651 14.5826 10.065 14.7764C10.9934 14.9702 11.9603 14.8384 12.803 14.4031C13.6457 13.9679 14.3128 13.2557 14.6921 12.3864H15.8637C16.3015 12.3859 16.7213 12.2117 17.0309 11.9021ZM1 4.95457H2.65152V6.60609H1V4.95457ZM1 9.08334H2.65152V10.7349H1V9.08334ZM2.65152 13.2122H1V14.8637H2.65152V13.2122ZM15.0379 9.90914H15.8637V10.7349H15.0379V9.90914Z" />
</svg>
