<svg width="24" height="24" viewBox="0 0 24 24" fill="#dadada" xmlns="http://www.w3.org/2000/svg">
<path fill-rule="evenodd" clip-rule="evenodd" d="M14.2579 1H10.2875V2.28571H7.72726C5.82654 2.28571 4.28571 3.82654 4.28571 5.72726V23H5.71428V5.72726C5.71428 4.61552 6.61552 3.71428 7.72726 3.71428H16.8182C17.9299 3.71428 18.8312 4.61552 18.8312 5.72726V23H20.2597V5.72726C20.2597 3.82654 18.7189 2.28571 16.8182 2.28571H14.2579V1ZM12.2727 5C10.9493 5 9.87273 6.07659 9.87273 7.4C9.87273 8.72341 10.9493 9.8 12.2727 9.8C13.5961 9.8 14.6727 8.72341 14.6727 7.4C14.6727 6.07659 13.5961 5 12.2727 5ZM16.2727 14.1467C16.2727 11.9412 14.4782 10.1467 12.2727 10.1467C10.0672 10.1467 8.27274 11.9412 8.27274 14.1467V18.1467H9.87274V23H14.6727V18.1467H16.2727V14.1467Z" />
</svg>
