<svg width="24" height="24" viewBox="0 0 24 24" fill="#dadada" xmlns="http://www.w3.org/2000/svg">
<path fill-rule="evenodd" clip-rule="evenodd" d="M13.932 1.00003C15.3657 1.00003 16.5326 2.16271 16.5402 3.59462H4.55708L13.21 1.10195C13.4446 1.03437 13.6875 1.00003 13.932 1.00003ZM9.85444 12.0703H8.38279C8.58711 10.9282 9.32017 9.96777 10.3193 9.4517C10.0547 10.2058 9.90227 11.133 9.85444 12.0703ZM12 9.05666C11.9047 9.12831 11.6835 9.39962 11.48 10.0651C11.3071 10.6307 11.195 11.3264 11.1534 12.0703H12.8466C12.8051 11.3264 12.6929 10.6307 12.52 10.0651C12.3166 9.39958 12.0954 9.12831 12 9.05666ZM10.3193 15.9862C9.32017 15.4702 8.58711 14.5097 8.38279 13.3676H9.85444C9.90227 14.3049 10.0547 15.2321 10.3193 15.9862ZM11.48 15.3728C11.6835 16.0383 11.9047 16.3096 12 16.3813C12.0954 16.3096 12.3166 16.0383 12.52 15.3728C12.6929 14.8073 12.8051 14.1115 12.8466 13.3676H11.1534C11.195 14.1115 11.3071 14.8073 11.48 15.3728ZM15.6172 13.3676C15.4129 14.5097 14.6798 15.4702 13.6806 15.9862C13.9453 15.2321 14.0977 14.3049 14.1455 13.3676H15.6172ZM18.0541 4.89192H4V22.4919C4 22.8501 4.29042 23.1406 4.64865 23.1406H18.0541C19.1288 23.1406 20 22.2694 20 21.1946V6.83787C20 5.76314 19.1288 4.89192 18.0541 4.89192ZM8.54054 20.2865C8.18231 20.2865 7.89189 19.9961 7.89189 19.6379C7.89189 19.2796 8.18231 18.9892 8.54054 18.9892H15.4595C15.8177 18.9892 16.1081 19.2796 16.1081 19.6379C16.1081 19.9961 15.8177 20.2865 15.4595 20.2865H8.54054ZM12 17.6919C9.2579 17.6919 7.02703 15.461 7.02703 12.7189C7.02703 9.97685 9.2579 7.74598 12 7.74598C14.7421 7.74598 16.973 9.97685 16.973 12.7189C16.973 15.461 14.7421 17.6919 12 17.6919ZM14.1455 12.0703C14.0977 11.133 13.9453 10.2058 13.6806 9.4517C14.6798 9.96777 15.4129 10.9282 15.6172 12.0703H14.1455Z" />
</svg>
