<svg width="20" height="20" viewBox="0 0 20 20" fill="#dadada" xmlns="http://www.w3.org/2000/svg">
<path fill-rule="evenodd" clip-rule="evenodd" d="M18.6499 5.92296C17.7545 3.76159 16.4617 1.82664 14.8076 0.171718C14.6977 0.0617968 14.5486 0 14.3932 0H5.60675C5.45132 0 5.30222 0.0617968 5.19233 0.171718C3.53823 1.82664 2.2455 3.76159 1.35004 5.92296C0.454218 8.08514 0 10.3677 0 12.7072V19.414C0 19.7376 0.262343 20 0.585936 20H3.53863L2.5405 17.0056C2.50042 16.8853 2.50042 16.7552 2.5405 16.635L3.7957 12.8694C3.87546 12.6301 4.09937 12.4687 4.35155 12.4687H8.44416L8.80389 11.0297C8.86912 10.7689 9.1035 10.5859 9.37236 10.5859H16.276C16.5448 10.5859 16.7792 10.7689 16.8444 11.0297L17.472 13.5401C17.5269 13.7596 17.4511 13.9954 17.2672 14.1419C17.1607 14.2267 17.0261 14.2682 16.89 14.2682H16.765L15.7229 20H19.414C19.7376 20 20 19.7376 20 19.414V12.7072C20 10.3677 19.5457 8.08514 18.6499 5.92296ZM12.5104 6.19268H7.48956C6.47272 6.19268 5.64843 5.36839 5.64843 4.35155C5.64843 3.33472 6.47272 2.51042 7.48956 2.51042H12.5104C13.5272 2.51042 14.3515 3.33472 14.3515 4.35155C14.3515 5.36839 13.5272 6.19268 12.5104 6.19268ZM15.8185 11.7578H9.82986L9.49521 13.0964H16.1531L15.8185 11.7578ZM3.9093 16.2344L4.77387 13.6407H8.16031C8.15011 13.7841 8.19296 13.9277 8.28292 14.0429C8.39398 14.1851 8.56433 14.2682 8.74476 14.2682H8.88343L9.24128 16.2344H3.9093ZM3.9093 17.4062L4.64032 19.5993C4.72008 19.8386 4.94399 20 5.19617 20H9.92558L9.45437 17.4062H3.9093ZM14.0428 20H11.6056C11.3224 20 11.0798 19.7975 11.0291 19.5188L10.0744 14.2682H15.5739L14.6192 19.5188C14.5686 19.7975 14.3259 20 14.0428 20Z" />
</svg>
