<svg width="24" height="24" viewBox="0 0 24 24" fill="#dadada" xmlns="http://www.w3.org/2000/svg">
<path fill-rule="evenodd" clip-rule="evenodd" d="M12.6445 1H11.3555V3.62109H12.6445V1ZM3.79666 4.70808L4.70807 3.79668L6.53088 5.61949L5.61948 6.5309L3.79666 4.70808ZM20.2032 4.70828L19.2918 3.79687L17.4689 5.61968L18.3804 6.53109L20.2032 4.70828ZM1 11.3555H3.62109V12.6445H1V11.3555ZM20.3789 11.3555H23V12.6445H20.3789V11.3555ZM6.19922 20.4219C5.48721 20.4219 4.91016 20.9989 4.91016 21.7109V23H19.0898V21.7109C19.0898 20.9989 18.5128 20.4219 17.8008 20.4219H6.19922ZM6.19922 19.1328V12C6.19922 8.80135 8.80135 6.19922 12 6.19922C15.1987 6.19922 17.8008 8.80135 17.8008 12V19.1328H6.19922ZM12.6445 16.5117V15.2227H11.3555V16.5117H12.6445ZM12.6445 10.0664H11.3555V13.9336H12.6445V10.0664Z" />
</svg>
