<svg width="24" height="24" viewBox="0 0 24 24" fill="#dadada" xmlns="http://www.w3.org/2000/svg">
<path fill-rule="evenodd" clip-rule="evenodd" d="M15.0879 2V3.91667H16.0879V2H15.0879ZM15.0879 4.875V6.79167H16.0879V4.875H15.0879ZM15.0879 7.75V9.66667H16.0879V7.75H15.0879ZM15.0879 10.625V12.5417H16.0879V10.625H15.0879ZM15.0879 13.5V15.4167H16.0879V13.5H15.0879ZM15.0879 16.375V18.2917H16.0879V16.375H15.0879ZM15.0879 19.25V21.1667H16.0879V19.25H15.0879ZM2.87006 7.96603C3.77597 7.96603 4.50974 7.23229 4.50974 6.32635C4.5097 5.42045 3.77597 4.68671 2.87006 4.68671C1.96416 4.68671 1.23039 5.42045 1.23039 6.32639C1.23039 7.23229 1.96413 7.96603 2.87006 7.96603ZM4.09919 8.7859H1.63968C0.737852 8.7859 0 9.52376 0 10.4255V14.9346H1.22975V21.0834H4.50908V14.9346H5.73884V10.4255C5.73884 9.52376 5.00099 8.7859 4.09919 8.7859ZM11.5976 6.32635C11.5976 7.23229 10.8639 7.96603 9.95796 7.96603C9.05202 7.96603 8.31828 7.23229 8.31828 6.32639C8.31828 5.42045 9.05206 4.68671 9.95796 4.68671C10.8639 4.68671 11.5976 5.42045 11.5976 6.32635ZM8.72758 8.7859H11.1871C12.0889 8.7859 12.8267 9.52376 12.8267 10.4255V14.9346H11.597V21.0834H8.31764V14.9346H7.08789V10.4255C7.08789 9.52376 7.82574 8.7859 8.72758 8.7859ZM20.958 7.96603C21.8639 7.96603 22.5976 7.23229 22.5976 6.32635C22.5976 5.42045 21.8639 4.68671 20.958 4.68671C20.0521 4.68671 19.3183 5.42045 19.3183 6.32639C19.3183 7.23229 20.052 7.96603 20.958 7.96603ZM22.1871 8.7859H19.7276C18.8257 8.7859 18.0879 9.52376 18.0879 10.4255V14.9346H19.3176V21.0834H22.597V14.9346H23.8267V10.4255C23.8267 9.52376 23.0889 8.7859 22.1871 8.7859Z" />
</svg>
