<svg width="24" height="24" viewBox="0 0 24 24" fill="#dadada" xmlns="http://www.w3.org/2000/svg">
<path fill-rule="evenodd" clip-rule="evenodd" d="M20 12C20 16.4183 16.4183 20 12 20C10.2575 20 8.64515 19.4429 7.33129 18.4971L18.4971 7.33129C19.4429 8.64515 20 10.2575 20 12ZM5.86515 17.1348L17.1348 5.86515C15.7454 4.70094 13.9545 4 12 4C7.58172 4 4 7.58172 4 12C4 13.9545 4.70094 15.7454 5.86515 17.1348ZM22 12C22 17.5228 17.5228 22 12 22C6.47715 22 2 17.5228 2 12C2 6.47715 6.47715 2 12 2C17.5228 2 22 6.47715 22 12Z" />
</svg>
