<svg width="24" height="24" viewBox="0 0 24 24" fill="#dadada" xmlns="http://www.w3.org/2000/svg">
<path fill-rule="evenodd" clip-rule="evenodd" d="M18 11C18 7.93 16.36 5.36 13.5 4.68V4C13.5 3.17 12.83 2.5 12 2.5C11.17 2.5 10.5 3.17 10.5 4V4.68C7.63 5.36 6 7.92 6 11V16L4 18V19H20V18L18 16V11ZM6.15 2.65L7.58 4.08C5.54 5.53 4.18 7.85 4.03 10.5H2.03C2.17 7.3 3.75 4.48 6.15 2.65ZM21.97 10.5H19.97C19.82 7.85 18.45 5.53 16.43 4.08L17.85 2.65C20.24 4.48 21.82 7.3 21.97 10.5ZM12.4 21.96C12.27 21.99 12.14 22 12 22C10.89 22 10 21.1 9.99 20H13.99C13.99 20.28 13.94 20.54 13.84 20.78C13.58 21.38 13.05 21.82 12.4 21.96Z" />
</svg>
