<svg width="24" height="24" viewBox="0 0 24 24" fill="#dadada" xmlns="http://www.w3.org/2000/svg">
<path fill-rule="evenodd" clip-rule="evenodd" d="M12 22C17.5228 22 22 17.5228 22 12C22 6.47715 17.5228 2 12 2C6.47715 2 2 6.47715 2 12C2 17.5228 6.47715 22 12 22ZM13.6203 13.5621C13.9461 13.8716 14.109 14.2523 14.109 14.7042C14.109 15.2396 13.9211 15.6621 13.5451 15.9716C13.1692 16.2811 12.6529 16.4358 11.9962 16.4358C11.3246 16.4358 10.8058 16.2516 10.4398 15.8832C10.0739 15.5147 9.89098 14.9891 9.89098 14.3063H8.5C8.5 15.2789 8.76316 16.0502 9.28947 16.62C9.8208 17.1849 10.5526 17.5091 11.485 17.5926V19H12.5977V17.5926C13.515 17.4993 14.2268 17.1996 14.7331 16.6937C15.2444 16.1877 15.5 15.5196 15.5 14.6895C15.5 14.1688 15.3972 13.7144 15.1917 13.3263C14.9912 12.9382 14.6754 12.5993 14.2444 12.3095C13.8183 12.0147 13.2218 11.747 12.4549 11.5063C11.693 11.2607 11.1441 10.9905 10.8083 10.6958C10.4774 10.3961 10.312 9.99579 10.312 9.49474C10.312 8.95439 10.4699 8.53439 10.7857 8.23474C11.1015 7.93018 11.5576 7.77789 12.1541 7.77789C12.7256 7.77789 13.1792 7.98175 13.515 8.38947C13.8509 8.79719 14.0188 9.34737 14.0188 10.04H15.4023C15.4023 9.03298 15.1667 8.23965 14.6955 7.66C14.2293 7.08035 13.5752 6.73404 12.7331 6.62105V5H11.6128V6.61368C10.7757 6.71193 10.1165 7.01895 9.63534 7.53474C9.15915 8.05053 8.92105 8.71123 8.92105 9.51684C8.92105 10.3077 9.16416 10.9611 9.65038 11.4768C10.1416 11.9877 10.9211 12.4028 11.9887 12.7221C12.7556 12.9726 13.2995 13.2526 13.6203 13.5621Z" />
</svg>
